<?xml version="1.0" encoding="UTF-8"?>
<svg version="1.1" xmlns="http://www.w3.org/2000/svg" width="1024" height="1024">
<path d="M0 0 C5.7156789 0.00458686 11.43134634 -0.00248948 17.14702284 -0.00795984 C28.29937324 -0.01678842 39.4516965 -0.01496172 50.6040479 -0.00913456 C59.67351975 -0.00459413 68.74298406 -0.00401538 77.81245673 -0.00618219 C79.10952399 -0.00648866 80.40659126 -0.00679513 81.74296359 -0.00711088 C84.37886422 -0.0077504 87.01476484 -0.00839883 89.65066545 -0.00905606 C113.58317018 -0.01457808 137.51566034 -0.00888064 161.44816272 0.00162913 C183.24442758 0.011128 205.04066907 0.01025993 226.83693373 0.00070715 C251.40324412 -0.01002405 275.96954042 -0.01420052 300.53585297 -0.00806832 C303.15861249 -0.00743129 305.78137201 -0.00680255 308.40413153 -0.00618219 C309.69422288 -0.00587364 310.98431423 -0.00556509 312.31349926 -0.00524719 C321.36749278 -0.00352648 330.42147796 -0.00642164 339.47547019 -0.0111413 C350.51497795 -0.0167702 361.5544573 -0.0151912 372.59396184 -0.00457981 C378.2169027 0.00064847 383.8397963 0.00278243 389.46273673 -0.00387812 C394.62350097 -0.00989851 399.78417477 -0.00646365 404.94493096 0.00407699 C406.79769216 0.00628537 408.65046122 0.00523353 410.50321723 0.00032541 C426.87346071 -0.0396673 443.40894094 0.76192332 459.50612319 3.94894934 C460.35738783 4.11628576 461.20865248 4.28362219 462.08571303 4.45602942 C491.29820612 10.54977797 518.10147145 24.07480951 540.00612319 44.26144934 C540.82596694 44.99879309 541.64581069 45.73613684 542.49049819 46.49582434 C577.39777061 79.42254229 587.26645522 130.43174888 589.00612319 176.26144934 C589.16393114 182.66300183 589.14602682 189.06583487 589.13983595 195.46889257 C589.14170929 197.33657067 589.14401206 199.20424837 589.14670128 201.07192546 C589.15276094 206.15177051 589.15269265 211.23159896 589.1515069 216.31144679 C589.15130141 221.81060177 589.15683568 227.30975163 589.16156447 232.80890417 C589.16983911 243.56250492 589.17261785 254.31610018 589.17317685 265.06970384 C589.17365345 273.81717095 589.17571539 282.56463626 589.17887747 291.31210279 C589.18624573 312.12131216 589.19240325 332.93052046 589.19187891 353.73973131 C589.19186334 354.4037987 589.19184776 355.06786608 589.19183171 355.75205672 C589.19174861 359.11711553 589.19164957 362.48217433 589.191547 365.84723314 C589.19151708 366.84953616 589.19151708 366.84953616 589.19148656 367.87208772 C589.19144612 369.22335178 589.19140432 370.57461583 589.19136117 371.92587989 C589.19074865 392.94147051 589.19825423 413.95704498 589.21193373 434.97263098 C589.22732961 458.63427176 589.23588523 482.29590447 589.23497051 505.9575513 C589.23463946 518.46706824 589.23734602 530.97656696 589.24814856 543.48607969 C589.25728734 554.13641809 589.25940114 564.78673 589.25263914 575.43707063 C589.24939114 580.86170241 589.24925452 586.28628348 589.25799239 591.71091032 C589.34779279 651.21343477 583.03842294 706.96285677 539.00612319 751.26144934 C499.48322247 790.85455059 442.24429813 796.34889524 389.30312496 796.39985484 C387.58619928 796.39838492 385.86927368 796.39681731 384.15234816 796.39516211 C382.26329327 796.39703706 380.37423876 796.39934044 378.48518485 796.40202743 C373.36490971 796.40806685 368.24465108 796.40802129 363.1243732 796.40683305 C357.57488325 796.40662704 352.02539832 796.41216652 346.47591078 796.41689062 C335.63262304 796.42515307 324.78934073 796.4279434 313.9460501 796.428503 C305.12715118 796.42898 296.30825404 796.4310439 287.48935568 796.43420362 C266.50326581 796.44156879 245.5171769 796.44772982 224.53108561 796.44720507 C223.86190041 796.44718949 223.19271521 796.44717391 222.50325167 796.44715786 C219.11239405 796.44707476 215.72153643 796.44697573 212.33067881 796.44687315 C211.65737201 796.44685321 210.9840652 796.44683326 210.29035516 796.44681271 C208.92877154 796.44677227 207.56718792 796.44673048 206.2056043 796.44668732 C185.01483616 796.44607438 163.82408402 796.45358953 142.63332045 796.46725988 C118.7673105 796.48265012 94.90131097 796.49121179 71.03529471 796.49029666 C58.41970752 796.48996552 45.80413839 796.49267665 33.18855536 796.50347471 C22.45261795 796.51260591 11.71670681 796.51473329 0.98076718 796.50796529 C-4.48820031 796.50471406 -9.95711749 796.50459269 -15.42608011 796.51331854 C-20.44652916 796.52124602 -25.46688852 796.51968922 -30.48733556 796.51103441 C-32.28919351 796.50951312 -34.09105837 796.51126282 -35.89290816 796.51689448 C-86.29062903 796.66379634 -133.76654159 783.30283783 -170.99387681 748.26144934 C-171.59457994 747.71359777 -172.19528306 747.16574621 -172.81418931 746.60129309 C-207.88836224 713.40318057 -217.96341181 661.59565348 -219.30588853 615.44797277 C-219.39628517 612.0891113 -219.47460535 608.7300852 -219.54856431 605.37082434 C-219.56950025 604.4405316 -219.59043619 603.51023886 -219.61200655 602.55175543 C-220.21035318 575.1154447 -220.14677549 547.67341616 -220.12264955 520.23216772 C-220.11855999 515.45005844 -220.11676539 510.66794965 -220.11518419 505.88583899 C-220.08978558 437.47538834 -219.85240723 369.06513159 -219.60360205 300.65518737 C-219.56913111 291.15955451 -219.53635684 281.66391694 -219.504441 272.16827518 C-219.45961131 258.84243347 -219.41124823 245.51661123 -219.35719889 232.19080353 C-219.33082111 225.6648377 -219.30584972 219.13887505 -219.28476846 212.61288977 C-219.26512136 206.56198795 -219.24097345 200.51112054 -219.21337807 194.4602499 C-219.20411116 192.2655874 -219.19640517 190.0709176 -219.19045985 187.87624359 C-219.14611634 172.0145222 -218.99866439 156.25176539 -216.30637681 140.57394934 C-216.13267564 139.55994055 -215.95897447 138.54593176 -215.78000963 137.50119543 C-212.72347169 120.49953421 -207.62360758 104.74659946 -199.99387681 89.26144934 C-199.67161119 88.59919348 -199.34934556 87.93693762 -199.01731431 87.2546134 C-192.69199144 74.39183793 -184.82648779 62.90428426 -175.00168931 52.44504309 C-172.93779311 50.26123121 -172.93779311 50.26123121 -171.04075181 47.74582434 C-161.54396618 36.21919139 -146.63520324 27.52305006 -133.68137681 20.32394934 C-132.85774644 19.86327063 -132.03411607 19.40259192 -131.18552721 18.92795324 C-125.91617426 16.06800703 -120.71514843 14.01542975 -114.99387681 12.26144934 C-113.58351258 11.7775471 -112.17464493 11.28926082 -110.76731431 10.79660559 C-75.135961 -1.30598435 -37.15373733 -0.0442456 0 0 Z M272.00612319 266.26144934 C268.38070425 269.7010937 265.1799505 273.40568498 262.00612319 277.26144934 C261.301006 278.10707434 260.59588881 278.95269934 259.86940444 279.82394934 C258.01292758 282.07505621 256.17503932 284.34003096 254.34303725 286.61105871 C251.6239259 289.9677411 248.8764108 293.30117056 246.13112319 296.63644934 C245.53050063 297.36638098 244.92987807 298.09631262 244.31105483 298.8483634 C240.19487421 303.84178105 236.03416089 308.7947611 231.84303725 313.72531652 C227.49435168 318.84767484 223.24428559 324.04759487 219.00612319 329.26144934 C213.76822975 335.70518875 208.47232069 342.09161596 203.0969435 348.42062902 C198.66549605 353.64595369 194.32943577 358.94640913 190.00612319 364.26144934 C187.75465604 367.01498581 185.50148128 369.76711921 183.24831069 372.51926184 C181.77207458 374.32469345 180.29805583 376.13194075 178.82643569 377.94113684 C174.81474187 382.86652604 170.75434127 387.74210987 166.63112319 392.57394934 C162.83023299 397.03229081 159.16024576 401.57063628 155.56862319 406.19894934 C151.31421704 411.67783151 146.8874484 416.97525022 142.34840834 422.21994543 C139.32652931 425.71322581 136.35787309 429.2395778 133.44362319 432.82394934 C126.16132502 441.77867403 118.71904803 450.57314938 110.93971694 459.10129309 C109.28906021 460.9453601 107.73034763 462.82302792 106.19362319 464.76144934 C103.58610892 467.74146563 101.62305372 468.94588258 97.74440444 469.70285559 C91.5885213 470.0101541 88.17795277 468.81590321 83.55299819 464.77316809 C75.32566693 456.65940428 67.6293493 448.17987306 60.42018569 439.14816809 C56.2348665 434.1433932 51.70992724 429.45309186 47.23659194 424.70676184 C44.29579739 421.58369011 41.44213141 418.39872841 38.64284194 415.14816809 C36.62738547 412.82486146 34.56763856 410.54396469 32.50612319 408.26144934 C29.85498325 405.32466469 27.22322148 402.37542392 24.63112319 399.38644934 C21.21997593 395.46994693 17.71019666 391.64637323 14.19411147 387.82443762 C11.27851258 384.65401002 8.38244613 381.46767313 5.50612319 378.26144934 C-10.39637255 357.75367423 -10.39637255 357.75367423 -32.40403306 347.02316809 C-43.14615349 346.72257856 -52.06678662 349.97120783 -59.99387681 357.26144934 C-66.43407422 363.62389788 -70.3167116 369.57820065 -70.4631151 378.76852942 C-70.45264146 379.52931799 -70.44216783 380.29010656 -70.43137681 381.07394934 C-70.42090318 381.87147619 -70.41042955 382.66900305 -70.39963853 383.49069738 C-70.01154005 396.10132794 -63.7023314 403.85662761 -55.99387681 413.26144934 C-54.94118353 414.55913186 -53.8891185 415.85732424 -52.83762681 417.15598059 C-51.18903297 419.18923809 -49.53852184 421.22081288 -47.88279283 423.24826574 C-44.37090108 427.5489824 -40.91035925 431.88464819 -37.49387681 436.26144934 C-31.43549566 444.01635497 -25.22017466 451.6411422 -18.99387681 459.26144934 C-18.2243065 460.20504309 -17.45473619 461.14863684 -16.66184556 462.12082434 C-12.12142363 467.68052466 -7.55812114 473.22130943 -2.99387681 478.76144934 C6.19283899 489.91240605 6.19283899 489.91240605 10.68190444 495.41379309 C12.44646215 497.57574699 14.2153265 499.7339111 15.98659194 501.89035559 C22.16289633 509.42960318 28.17789405 517.06328967 34.05983412 524.83420324 C38.47714597 530.63969967 43.08668883 536.26567732 47.7622267 541.86423254 C52.51160003 547.58002887 57.02377243 553.4548233 61.39284194 559.46652746 C69.1954906 569.95584011 78.34482666 576.59503223 91.38112319 578.69894934 C102.01667373 579.81284386 112.0672241 578.49159113 121.00612319 572.26144934 C126.32258696 567.57375425 130.46843725 562.19671216 134.56862319 556.44894934 C139.31401596 549.90056278 144.14005701 543.43724668 149.13112319 537.07394934 C153.55127005 531.43362578 157.91255001 525.75810885 162.19362319 520.01144934 C171.00352294 508.19992725 180.18513609 496.70968677 189.58083022 485.35910559 C196.16206979 477.40826178 202.69589358 469.43671126 209.03297865 461.28952551 C212.09983574 457.36550385 215.26823636 453.54518243 218.50612319 449.76144934 C223.73165586 443.65123908 228.70601833 437.36560303 233.63991225 431.01877356 C240.38700424 422.34015165 247.21948122 413.73979692 254.1696974 405.22287512 C258.11777393 400.37692392 261.9939713 395.47992839 265.83986342 390.5527091 C269.35987678 386.05480814 272.95480631 381.62168821 276.56862319 377.19894934 C281.33640668 371.35893811 285.98746495 365.44576931 290.56081069 359.45285559 C293.09471648 356.13513098 295.67234222 352.85289708 298.25612319 349.57394934 C299.1780573 348.40081871 300.09993069 347.22764035 301.02174819 346.05441809 C302.5715112 344.08279831 304.12355042 342.11308955 305.67995131 340.14670324 C312.04990593 332.09529413 318.33412025 324.0074198 324.19362319 315.57394934 C324.86167983 314.62189611 324.86167983 314.62189611 325.54323256 313.65060949 C331.84090442 304.4318169 332.96029702 296.22360558 332.00612319 285.26144934 C330.16037037 276.87865529 325.48772184 270.18000128 318.30690444 265.50363684 C304.21349493 257.87661522 285.50398073 256.22864582 272.00612319 266.26144934 Z " fill="#FEFEFE" transform="translate(326.9938768148422,113.73855066299438)"/>
<path d="M0 0 C1.12148438 0.98033203 1.12148438 0.98033203 2.265625 1.98046875 C2.86890625 2.49996094 3.4721875 3.01945312 4.09375 3.5546875 C12.66010425 11.50058152 18.94956494 21.52293837 23.703125 32.10546875 C24.02079834 32.80841064 24.33847168 33.51135254 24.66577148 34.2355957 C29.13754055 44.70898119 30.80723238 54.87869777 30.703125 66.23046875 C30.69410156 67.41487549 30.68507813 68.59928223 30.67578125 69.81958008 C30.28671963 89.57931705 23.3424292 106.40617422 11.265625 121.98046875 C10.84796875 122.53863281 10.4303125 123.09679687 10 123.671875 C-2.72053447 139.91175734 -23.55260601 150.17670618 -43.734375 152.98046875 C-58.48640105 154.15686969 -73.80202492 154.52811009 -87.734375 148.98046875 C-88.71792969 148.59503906 -89.70148437 148.20960938 -90.71484375 147.8125 C-93.4594859 146.64271459 -96.09125919 145.36302163 -98.734375 143.98046875 C-99.96027344 143.35398437 -99.96027344 143.35398437 -101.2109375 142.71484375 C-120.57151245 132.02043092 -134.96419403 112.39031235 -141.109375 91.41796875 C-145.64497573 74.360166 -146.12293532 54.60659778 -139.734375 37.98046875 C-139.29867187 36.79710937 -138.86296875 35.61375 -138.4140625 34.39453125 C-133.44878706 21.88637836 -126.13489484 11.54796052 -116.734375 1.98046875 C-116.12207031 1.35527344 -115.50976562 0.73007813 -114.87890625 0.0859375 C-84.23160944 -28.86236204 -31.17154768 -26.12332533 0 0 Z " fill="#FD4515" transform="translate(795.734375,224.01953125)"/>
<path d="M0 0 C-2.31059754 0.79759757 -4.62325433 1.58811227 -6.9375 2.375 C-7.57751953 2.59671875 -8.21753906 2.8184375 -8.87695312 3.046875 C-18.72900248 6.37990662 -27.69598966 7.38577725 -38.125 7.375 C-39.40785889 7.37628906 -40.69071777 7.37757813 -42.01245117 7.37890625 C-51.24897337 7.27584229 -59.36317739 6.34136142 -68 3 C-64.33900486 1.69002307 -62.05751854 2.38868143 -58.375 3.4375 C-47.12658365 6.07010808 -35.47825936 5.25245438 -24 5 C-24 4.34 -24 3.68 -24 3 C-21.69 3.33 -19.38 3.66 -17 4 C-17 3.34 -17 2.68 -17 2 C-16.24074219 1.86722656 -15.48148438 1.73445313 -14.69921875 1.59765625 C-13.70535156 1.42105469 -12.71148438 1.24445313 -11.6875 1.0625 C-10.20830078 0.80146484 -10.20830078 0.80146484 -8.69921875 0.53515625 C-2.23774955 -0.74591652 -2.23774955 -0.74591652 0 0 Z " fill="#D7381C" transform="translate(776,370)"/>
<path d="M0 0 C0.99 0.99 0.99 0.99 2 2 C0.02 2.33 -1.96 2.66 -4 3 C-4.495 1.02 -4.495 1.02 -5 -1 C-5.60328125 -1.06058594 -6.2065625 -1.12117187 -6.828125 -1.18359375 C-7.62734375 -1.26738281 -8.4265625 -1.35117188 -9.25 -1.4375 C-10.43335938 -1.55931641 -10.43335938 -1.55931641 -11.640625 -1.68359375 C-13.82364639 -1.97634993 -15.8773182 -2.42064419 -18 -3 C-18 -3.66 -18 -4.32 -18 -5 C-33.32513298 -6.4695333 -47.8186911 -6.26104601 -63 -4 C-50.6804368 -16.3195632 -13.62592685 -6.60584934 0 0 Z " fill="#D1351B" transform="translate(777,212)"/>
<path d="M0 0 C5.14118055 -0.04966586 10.28221951 -0.08584495 15.42358398 -0.10986328 C17.17035355 -0.11988268 18.9171065 -0.13350195 20.66381836 -0.15087891 C23.18347285 -0.17530669 25.70290439 -0.18652389 28.22265625 -0.1953125 C28.99585709 -0.20563507 29.76905792 -0.21595764 30.56568909 -0.22659302 C35.42129596 -0.22758391 39.39049673 0.45727106 44 2 C44 2.66 44 3.32 44 4 C42.48986328 3.7834375 42.48986328 3.7834375 40.94921875 3.5625 C32.93113901 2.47934067 25.03350728 1.80607778 16.9375 1.8125 C16.16559326 1.81185547 15.39368652 1.81121094 14.59838867 1.81054688 C9.65927774 1.85753009 4.89025397 2.30615012 0 3 C0 2.01 0 1.02 0 0 Z " fill="#FEE7E0" transform="translate(720,203)"/>
<path d="M0 0 C0.33 0.66 0.66 1.32 1 2 C1.99 2.33 2.98 2.66 4 3 C3.58565093 7.83407252 1.62206046 9.89537674 -2 13 C-2.99 13.33 -3.98 13.66 -5 14 C-6.70855022 17.00007271 -6.70855022 17.00007271 -8 20 C-9 17 -9 17 -8.39501953 15.20654297 C-7.89397705 14.23418701 -7.89397705 14.23418701 -7.3828125 13.2421875 C-7.02316406 12.53449219 -6.66351562 11.82679688 -6.29296875 11.09765625 C-5.90753906 10.36417969 -5.52210938 9.63070312 -5.125 8.875 C-4.55845703 7.76318359 -4.55845703 7.76318359 -3.98046875 6.62890625 C-1.18268327 1.18268327 -1.18268327 1.18268327 0 0 Z " fill="#EA3E19" transform="translate(666,242)"/>
<path d="M0 0 C0.99 0 1.98 0 3 0 C1.61219205 3.89006773 -0.2152227 6.96558708 -2.625 10.3125 C-3.25664063 11.19550781 -3.88828125 12.07851563 -4.5390625 12.98828125 C-5.02117188 13.65214844 -5.50328125 14.31601562 -6 15 C-6.66 13.68 -7.32 12.36 -8 11 C-6.625 9.5 -6.625 9.5 -5 8 C-4.34 8 -3.68 8 -3 8 C-2.814375 6.8553125 -2.814375 6.8553125 -2.625 5.6875 C-2 3 -2 3 0 0 Z " fill="#E13F1B" transform="translate(813,331)"/>
<path d="M0 0 C1 3 1 3 0.43359375 4.76171875 C-2.23267426 9.91650357 -5.38209932 14.46556449 -9 19 C-9.99 18.34 -10.98 17.68 -12 17 C-11.13375 16.05125 -10.2675 15.1025 -9.375 14.125 C-5.62965751 9.78218621 -2.82235671 4.97415349 0 0 Z " fill="#FFE3D9" transform="translate(816,331)"/>
<path d="M0 0 C2.2104141 0.59650901 4.41825403 1.2025609 6.625 1.8125 C8.46964844 2.31716797 8.46964844 2.31716797 10.3515625 2.83203125 C13.79493636 3.93435329 16.82035844 5.29277707 20 7 C18.125 8.0625 18.125 8.0625 16 9 C14 8 14 8 13 5 C12.39671875 4.93941406 11.7934375 4.87882813 11.171875 4.81640625 C10.37265625 4.73261719 9.5734375 4.64882812 8.75 4.5625 C7.56664062 4.44068359 7.56664062 4.44068359 6.359375 4.31640625 C4.17635361 4.02365007 2.1226818 3.57935581 0 3 C0 2.01 0 1.02 0 0 Z " fill="#DA3E1D" transform="translate(759,206)"/>
<path d="M0 0 C0.66 0.33 1.32 0.66 2 1 C-0.70367621 4.70503778 -3.10097283 6.67915049 -7 9 C-9.09558797 10.92219416 -11.03347547 12.94200922 -13 15 C-13.66 14.67 -14.32 14.34 -15 14 C-13.25311063 12.22600373 -11.50266549 10.45577447 -9.75 8.6875 C-9.25886719 8.18798828 -8.76773438 7.68847656 -8.26171875 7.17382812 C-5.64859804 4.54328661 -3.04342089 2.12314838 0 0 Z " fill="#D93A1E" transform="translate(687,219)"/>
<path d="M0 0 C4.05860537 1.35286846 4.71215756 3.43365737 7 7 C8.6174123 9.04718185 10.30150451 11.01842192 12 13 C8.62801098 11.53424802 6.35012996 9.64818479 3.75 7.0625 C3.04359375 6.37285156 2.3371875 5.68320312 1.609375 4.97265625 C0 3 0 3 0 0 Z " fill="#D93922" transform="translate(673,346)"/>
<path d="M0 0 C2.31 0 4.62 0 7 0 C4.45217026 2.97246802 1.54659117 4.41535288 -2 6 C-2.66 6 -3.32 6 -4 6 C-3.67 5.01 -3.34 4.02 -3 3 C-2.01 2.67 -1.02 2.34 0 2 C0 1.34 0 0.68 0 0 Z " fill="#E33C1E" transform="translate(780,363)"/>
<path d="M0 0 C0.268125 0.639375 0.53625 1.27875 0.8125 1.9375 C1.88667752 4.33131686 1.88667752 4.33131686 5 5 C5 6.32 5 7.64 5 9 C5.66 9.33 6.32 9.66 7 10 C7 11.65 7 13.3 7 15 C3.13521815 10.60214479 0 6.02718405 0 0 Z " fill="#DB3D1F" transform="translate(657,320)"/>
<path d="M0 0 C0.99 0.99 1.98 1.98 3 3 C2 5 2 5 0 6 C-0.99 7.485 -0.99 7.485 -2 9 C-2 8.34 -2 7.68 -2 7 C-2.66 7 -3.32 7 -4 7 C-2.79618552 4.50638429 -1.54571278 2.31856917 0 0 Z " fill="#F0431F" transform="translate(813,246)"/>
<path d="M0 0 C0.66 0.33 1.32 0.66 2 1 C-1.96 4.465 -1.96 4.465 -6 8 C-6.33 6.68 -6.66 5.36 -7 4 C-6.030625 3.525625 -5.06125 3.05125 -4.0625 2.5625 C-1.19522563 1.29806053 -1.19522563 1.29806053 0 0 Z " fill="#DC3B1D" transform="translate(795,355)"/>
<path d="M0 0 C2.64752004 2.57784846 4.94432065 4.91648098 7 8 C6.21625 7.67 5.4325 7.34 4.625 7 C2.15667503 5.88133489 2.15667503 5.88133489 0 6 C0 4.02 0 2.04 0 0 Z " fill="#FEE7DC" transform="translate(669,344)"/>
<path d="M0 0 C3.65316671 1.24976756 4.78065836 1.67098753 7 5 C4.69 5 2.38 5 0 5 C-0.5625 3.0625 -0.5625 3.0625 -1 1 C-0.67 0.67 -0.34 0.34 0 0 Z " fill="#E43C18" transform="translate(786,218)"/>
<path d="M0 0 C-2.48952921 2.66735273 -4.63408134 4.55746343 -8 6 C-7.625 3.5625 -7.625 3.5625 -7 1 C-4.53721199 -0.231394 -2.7204945 -0.07159196 0 0 Z " fill="#FDE9DB" transform="translate(689,218)"/>
<path d="M0 0 C2.97 0 5.94 0 9 0 C8.67 0.66 8.34 1.32 8 2 C5.35139573 2.59355614 2.70802678 2.74209269 0 3 C0 2.01 0 1.02 0 0 Z " fill="#FDDAD1" transform="translate(720,203)"/>
<path d="M0 0 C-1.29299694 2.88437779 -2.65941363 4.87219421 -5 7 C-5.66 6.34 -6.32 5.68 -7 5 C-2.25 0 -2.25 0 0 0 Z " fill="#FEEBE5" transform="translate(811,343)"/>
<path d="M0 0 C0.99 0 1.98 0 3 0 C2.25 2.4375 2.25 2.4375 1 5 C-1.125 5.8125 -1.125 5.8125 -3 6 C-2.01 4.02 -1.02 2.04 0 0 Z " fill="#EA3D24" transform="translate(813,331)"/>
<path d="" fill="#000000" transform="translate(0,0)"/>
<path d="" fill="#000000" transform="translate(0,0)"/>
<path d="" fill="#000000" transform="translate(0,0)"/>
<path d="" fill="#000000" transform="translate(0,0)"/>
<path d="" fill="#000000" transform="translate(0,0)"/>
<path d="" fill="#000000" transform="translate(0,0)"/>
<path d="" fill="#000000" transform="translate(0,0)"/>
<path d="" fill="#000000" transform="translate(0,0)"/>
<path d="" fill="#000000" transform="translate(0,0)"/>
<path d="" fill="#000000" transform="translate(0,0)"/>
<path d="" fill="#000000" transform="translate(0,0)"/>
<path d="" fill="#000000" transform="translate(0,0)"/>
<path d="" fill="#000000" transform="translate(0,0)"/>
<path d="" fill="#000000" transform="translate(0,0)"/>
<path d="" fill="#000000" transform="translate(0,0)"/>
<path d="" fill="#000000" transform="translate(0,0)"/>
<path d="" fill="#000000" transform="translate(0,0)"/>
<path d="" fill="#000000" transform="translate(0,0)"/>
<path d="" fill="#000000" transform="translate(0,0)"/>
<path d="" fill="#000000" transform="translate(0,0)"/>
<path d="" fill="#000000" transform="translate(0,0)"/>
<path d="" fill="#000000" transform="translate(0,0)"/>
<path d="" fill="#000000" transform="translate(0,0)"/>
<path d="" fill="#000000" transform="translate(0,0)"/>
<path d="" fill="#000000" transform="translate(0,0)"/>
<path d="" fill="#000000" transform="translate(0,0)"/>
<path d="" fill="#000000" transform="translate(0,0)"/>
<path d="" fill="#000000" transform="translate(0,0)"/>
<path d="" fill="#000000" transform="translate(0,0)"/>
<path d="" fill="#000000" transform="translate(0,0)"/>
<path d="" fill="#000000" transform="translate(0,0)"/>
<path d="" fill="#000000" transform="translate(0,0)"/>
<path d="" fill="#000000" transform="translate(0,0)"/>
<path d="" fill="#000000" transform="translate(0,0)"/>
<path d="" fill="#000000" transform="translate(0,0)"/>
<path d="" fill="#000000" transform="translate(0,0)"/>
<path d="" fill="#000000" transform="translate(0,0)"/>
<path d="" fill="#000000" transform="translate(0,0)"/>
<path d="" fill="#000000" transform="translate(0,0)"/>
<path d="" fill="#000000" transform="translate(0,0)"/>
</svg>
